/* XPM */
static char *aqemu___x__[] = {
/* columns rows colors chars-per-pixel */
"16 16 173 2",
"   c #0C49224D4337",
".  c #0E4F26274966",
"X  c #0EEC2900501F",
"o  c #0FFC2BAB55CB",
"O  c #10FB2F215C1E",
"+  c #11432FC15D4E",
"@  c #1185306A5EB6",
"#  c #11A630A55F1C",
"$  c #125131305F4D",
"%  c #128432B5633F",
"&  c #12D833E2656E",
"*  c #167436A46735",
"=  c #1314359C697C",
"-  c #14CA395B7050",
";  c #15113A4E725C",
":  c #15543B6A749F",
">  c #163E3CBC76E0",
",  c #1AF03F0074E2",
"<  c #15703D497952",
"1  c #166E3D997840",
"2  c #16E93EAA7A4D",
"3  c #17A440417CB6",
"4  c #19BF420A7E15",
"5  c #1D0843187C68",
"6  c #1D1744067EB8",
"7  c #175142988415",
"8  c #199646938A0B",
"9  c #199D47BF8D72",
"0  c #1BBD482889CB",
"q  c #1ABA486A8CCC",
"w  c #19C547F48D77",
"e  c #1A4D49318FF1",
"r  c #1B2149DB903B",
"t  c #1AAF4A4491E4",
"y  c #1CE34FD49C9F",
"u  c #1D2F509A9E03",
"i  c #1DCB51349EA3",
"p  c #21B9502F9384",
"a  c #22F351E0985C",
"s  c #23A654F99BCC",
"d  c #277158649DF6",
"f  c #3B2165B8972B",
"g  c #1E2152DAA20A",
"h  c #1F07554AA720",
"j  c #241A574EA221",
"k  c #2070577BAA31",
"l  c #26C05D08ABE8",
"z  c #222F5CFEB579",
"x  c #2C036044AEED",
"c  c #32B46796AFE2",
"v  c #3BAD6CF6A908",
"b  c #39756BF8AC5D",
"n  c #2467607EBABF",
"m  c #25176184BBDA",
"M  c #243F61ABBE6F",
"N  c #2E9D69F2BF1A",
"B  c #31FB68A6B33E",
"V  c #34356D05BB7F",
"C  c #35D66CD1BF89",
"Z  c #41BB74ACB4F8",
"A  c #40EF76E6BB09",
"S  c #276964FFC15A",
"D  c #2988686AC6B5",
"F  c #291B68DEC8CD",
"G  c #36FA710DC268",
"H  c #33C77059C7DE",
"J  c #38E97450C518",
"K  c #3D017452C6ED",
"L  c #3DB37750C7CC",
"P  c #3F7A7A36C607",
"I  c #35D87373CB71",
"U  c #36397364CE99",
"Y  c #3F3D7B1FCF07",
"T  c #2FE870B1D239",
"R  c #3249728FD2C0",
"E  c #395076F2D2AC",
"W  c #3A2677D5D2C6",
"Q  c #38137697D4D5",
"!  c #416079D4C332",
"~  c #420F7B58C6FE",
"^  c #449E7B72CAC0",
"/  c #44127D97C9D5",
"(  c #416E7933CC87",
")  c #43C67B60CE05",
"_  c #41F57D0CD3EB",
"`  c #45AB7EF4D2C4",
"'  c #424B7D66D6A8",
"]  c #42487DC8D807",
"[  c #50268255B787",
"{  c #567787D2BDB2",
"}  c #540C8677BEA2",
"|  c #4CB98243CB52",
" . c #4D35839BCB52",
".. c #4B2C8233CFB6",
"X. c #4F2584BACCD9",
"o. c #5339879DC55A",
"O. c #550B8870C27F",
"+. c #5B288E31C2BB",
"@. c #525D8719CCCE",
"#. c #53AE8A03CB35",
"$. c #546B8944CABC",
"%. c #57338F1FCBFC",
"&. c #55CF88B6CCB2",
"*. c #56CB89FBCD54",
"=. c #554B8B9BCDAE",
"-. c #56B68BE0CC97",
";. c #58258D40CBBE",
":. c #5AFF8E26CD56",
">. c #5BFD9193C81D",
",. c #5DFA9147CE46",
"<. c #4F7B850ED07C",
"1. c #4F09849FD1C3",
"2. c #482D8196D8C0",
"3. c #51E5856CD221",
"4. c #52A08785D1EE",
"5. c #562D8A38D100",
"6. c #56E68B62D05C",
"7. c #539F891CD5E0",
"8. c #5B028F60D17B",
"9. c #54968A34DB01",
"0. c #6BBF97EAC71F",
"q. c #652F97AAC9A6",
"w. c #666697A7CA7F",
"e. c #61F09276CEE1",
"r. c #648A9282CEAB",
"t. c #65A1969ECFBE",
"y. c #68D09738CFF7",
"u. c #667E98C1CB15",
"i. c #6458995FCF0A",
"p. c #6FC79AD1CA25",
"a. c #6D1E9A62CB6A",
"s. c #6BAD9BCBCFB7",
"d. c #6E6E99CBCF68",
"f. c #6197944FD104",
"g. c #632F965DD10F",
"h. c #66A99702D083",
"j. c #65ED97A5D1D9",
"k. c #67D09A65D21A",
"l. c #6DBC9FBBD10A",
"z. c #6E1C9EC3D093",
"x. c #622D9278DB91",
"c. c #70899F55D0F6",
"v. c #73749F7BD071",
"b. c #70C89F80D302",
"n. c #71DAA201D272",
"m. c #71FDA07FD302",
"M. c #7362A352D33C",
"N. c #72F1A253D354",
"B. c #753CA1DAD397",
"V. c #75BCA35ED40E",
"C. c #75F0A4E3D3E2",
"Z. c #77E7A515D342",
"A. c #7372A373D4CD",
"S. c #72FBA657D568",
"D. c #76F9A709D54E",
"F. c #78A0A63FD2E1",
"G. c #7A31A6D0D2EA",
"H. c #7953A517D506",
"J. c #7A9CA7C9D53A",
"K. c #779AA8BBD5E1",
"L. c #79DCA893D4EB",
"P. c #7E4BAC07D74A",
"I. c #7F79AC52D7B3",
"U. c #7737A9ABD86E",
"Y. c #77A6AA64D8B1",
"T. c #820EAFB4D84E",
"R. c #811AADF9D969",
"E. c #80A7AEE4D926",
"W. c #84ACB218DB98",
"Q. c #837AB222DC63",
"!. c #8A6DB5E2DCE4",
"~. c #91F0BEF6E49B",
"^. c None",
/* pixels */
"^.^.^.^.^.^., 6 6 * ^.^.^.^.^.^.",
"^.^.^.^.6 l K ) ( C a % ^.^.^.^.",
"^.^.o y H 8.b.V.m.f.( m > ^.^.^.",
"^.^.e G A.a.&.3.5.t.m./ z & ^.^.",
"^.= l s.~.G.e.1.2.'  .l.V t ^.^.",
"^.7 Z w.G.0.G.P.g.1.U #.O.g @ ^.",
"O e { ! $.c./ &.I.Q.k.o.u.j - ^.",
"@ 0 +.J I D.@.@.m.:.g.Y.S.d - ^.",
"O 3 [ P T ,.G.V.6.' Q ~ w.p = ^.",
"O 1 v %.E @.W.y.9.7. .%.} t % ^.",
"^.> s >.&.3.V.Z.x.r.T.K.c e X ^.",
"^.& 9 B i.z.a.!.d.m.E.L.b - ^.^.",
"^.^.- y D ;.V.T.J.k.K A f   ^.^.",
"^.^.^.2 h F W ` ' R m 8 . ^.^.^.",
"^.^.^.^.^.y m F S h 1 ^.^.^.^.^.",
"^.^.^.^.^.^.^.^.^.^.^.^.^.^.^.^."
};
